<svg fill="none" height="24" viewBox="0 0 24 24" width="24" xmlns="http://www.w3.org/2000/svg"><g stroke="#141b34" stroke-linecap="round" stroke-width="1.5"><path d="m12.8809 7.01656 4.7729 1.27169m-5.796 2.52515 2.3864.6358m-2.2677 6.5172.9546.2544c2.6999.7193 4.0499 1.079 5.1134.4685 1.0635-.6106 1.4253-1.953 2.1487-4.6377l1.0231-3.7968c.7235-2.68475 1.0852-4.02712.4712-5.08464s-1.964-1.41721-4.664-2.13658l-.9546-.25434c-2.6999-.71938-4.0499-1.07906-5.1134-.4685-1.06354.61056-1.42527 1.95293-2.14872 4.63767l-1.02312 3.79679c-.72346 2.6847-1.08518 4.0271-.47116 5.0846.61402 1.0576 1.96401 1.4173 4.664 2.1366z"/><path d="m12 20.9461-.9523.2593c-2.69367.7335-4.04048 1.1003-5.10151.4777-1.06102-.6225-1.4219-1.9912-2.14366-4.7286l-1.02071-3.8713c-.72176-2.7374-1.08264-4.10608-.47005-5.18434.5299-.93273 1.68823-.89877 3.18823-.89889"/></g></svg>